<?xml version="1.0" encoding="UTF-8"?>
<svg id="Layer_2" data-name="Layer 2" xmlns="http://www.w3.org/2000/svg" viewBox="0 0 292.69 337.02">
  <path d="m292.6,193.79c.03-92.85-52.6-97.28-63.36-99.66-35.04-7.74-53.3,11.18-53.3,11.18l4.92,36.72s25.88-8.89,41.1,1.47c24.51,16.68,20.6,46.14,20.09,58.55-2.04,49.7-33.86,53.3-38.47,53.79-32.34,3.4-47.56-29.67-46.55-43.66C168.85,48.17,77.36,0,77.36,0l-27.57,42.89c104.28,88.8,47.23,227.74,0,252.77l26.04,41.36s34.47-19.91,55.57-60.09c0,0,22.45,23.08,77.7,20.26,89.79-4.6,83.48-81.84,83.49-103.4Z" style="fill: #99d4c0;"/>
  <circle cx="22.98" cy="116.43" r="22.98" transform="translate(-26.13 8.39) rotate(-13.28)" style="fill: #99d4c0;"/>
  <circle cx="22.98" cy="219.83" r="22.98" transform="translate(-148.71 80.64) rotate(-45)" style="fill: #99d4c0;"/>
</svg>